<svg width="32" height="32" viewBox="0 0 32 32" fill="none" xmlns="http://www.w3.org/2000/svg">
  <path d="M27.5821 4.30078L17.3333 11.1367L19.2873 6.7825L27.5821 4.30078Z" fill="#E17726" stroke="#E17726" stroke-width="0.25" stroke-linecap="round" stroke-linejoin="round"/>
  <path d="M4.41797 4.30078L14.5835 11.1979L12.7127 6.7825L4.41797 4.30078Z" fill="#E27625" stroke="#E27625" stroke-width="0.25" stroke-linecap="round" stroke-linejoin="round"/>
  <path d="M23.9462 21.9863L21.1504 26.3405L27.0504 28.0447L28.7546 22.0781L23.9462 21.9863Z" fill="#E27625" stroke="#E27625" stroke-width="0.25" stroke-linecap="round" stroke-linejoin="round"/>
  <path d="M3.25391 22.0781L4.94974 28.0447L10.8497 26.3405L8.05391 21.9863L3.25391 22.0781Z" fill="#E27625" stroke="#E27625" stroke-width="0.25" stroke-linecap="round" stroke-linejoin="round"/>
  <path d="M10.5127 14.5098L8.83594 17.1629L14.6742 17.4689L14.4599 11.1367L10.5127 14.5098Z" fill="#E27625" stroke="#E27625" stroke-width="0.25" stroke-linecap="round" stroke-linejoin="round"/>
  <path d="M21.4873 14.5098L17.4791 11.0762L17.3333 17.4689L23.1641 17.1629L21.4873 14.5098Z" fill="#E27625" stroke="#E27625" stroke-width="0.25" stroke-linecap="round" stroke-linejoin="round"/>
  <path d="M10.8496 26.3405L14.2839 24.5752L11.3108 22.1191L10.8496 26.3405Z" fill="#E27625" stroke="#E27625" stroke-width="0.25" stroke-linecap="round" stroke-linejoin="round"/>
  <path d="M17.7158 24.5752L21.1502 26.3405L20.6889 22.1191L17.7158 24.5752Z" fill="#E27625" stroke="#E27625" stroke-width="0.25" stroke-linecap="round" stroke-linejoin="round"/>
  <path d="M21.1502 26.3405L17.7158 24.5752L18.0218 27.0313L17.9912 27.9844L21.1502 26.3405Z" fill="#D5BFB2" stroke="#D5BFB2" stroke-width="0.25" stroke-linecap="round" stroke-linejoin="round"/>
  <path d="M10.8496 26.3405L14.0086 27.9844L13.9933 27.0313L14.2839 24.5752L10.8496 26.3405Z" fill="#D5BFB2" stroke="#D5BFB2" stroke-width="0.25" stroke-linecap="round" stroke-linejoin="round"/>
  <path d="M14.0698 20.4033L11.2129 19.5113L13.2281 18.5273L14.0698 20.4033Z" fill="#233447" stroke="#233447" stroke-width="0.25" stroke-linecap="round" stroke-linejoin="round"/>
  <path d="M17.9297 20.4033L18.7714 18.5273L20.7866 19.5113L17.9297 20.4033Z" fill="#233447" stroke="#233447" stroke-width="0.25" stroke-linecap="round" stroke-linejoin="round"/>
  <path d="M10.8497 26.3405L11.3262 21.9863L8.05469 22.0781L10.8497 26.3405Z" fill="#CC6228" stroke="#CC6228" stroke-width="0.25" stroke-linecap="round" stroke-linejoin="round"/>
  <path d="M20.6738 21.9863L21.1504 26.3405L23.9454 22.0781L20.6738 21.9863Z" fill="#CC6228" stroke="#CC6228" stroke-width="0.25" stroke-linecap="round" stroke-linejoin="round"/>
  <path d="M23.1641 17.1631L17.3333 17.4691L17.9302 20.4035L18.772 18.5275L20.7872 19.5115L23.1641 17.1631Z" fill="#CC6228" stroke="#CC6228" stroke-width="0.25" stroke-linecap="round" stroke-linejoin="round"/>
  <path d="M11.2129 19.5115L13.2281 18.5275L14.0698 20.4035L14.6667 17.4691L8.83594 17.1631L11.2129 19.5115Z" fill="#CC6228" stroke="#CC6228" stroke-width="0.25" stroke-linecap="round" stroke-linejoin="round"/>
  <path d="M8.83594 17.1631L11.3109 22.1193L11.2129 19.5115L8.83594 17.1631Z" fill="#E27525" stroke="#E27525" stroke-width="0.25" stroke-linecap="round" stroke-linejoin="round"/>
  <path d="M20.7871 19.5115L20.6891 22.1193L23.1641 17.1631L20.7871 19.5115Z" fill="#E27525" stroke="#E27525" stroke-width="0.25" stroke-linecap="round" stroke-linejoin="round"/>
  <path d="M14.6667 17.4688L14.0698 20.4032L14.8197 24.1824L14.9808 19.2055L14.6667 17.4688Z" fill="#E27525" stroke="#E27525" stroke-width="0.25" stroke-linecap="round" stroke-linejoin="round"/>
  <path d="M17.3333 17.4688L17.0345 19.1902L17.1803 24.1824L17.9302 20.4032L17.3333 17.4688Z" fill="#E27525" stroke="#E27525" stroke-width="0.25" stroke-linecap="round" stroke-linejoin="round"/>
  <path d="M17.9302 20.4033L17.1803 24.1825L17.7159 24.5754L20.6889 22.1192L20.7869 19.5114L17.9302 20.4033Z" fill="#F5841F" stroke="#F5841F" stroke-width="0.25" stroke-linecap="round" stroke-linejoin="round"/>
  <path d="M11.2129 19.5114L11.3109 22.1192L14.2839 24.5754L14.8195 24.1825L14.0696 20.4033L11.2129 19.5114Z" fill="#F5841F" stroke="#F5841F" stroke-width="0.25" stroke-linecap="round" stroke-linejoin="round"/>
  <path d="M17.9912 27.9844L18.0218 27.0313L17.7464 26.7969H14.2533L13.9933 27.0313L14.0086 27.9844L10.8496 26.3405L12.0373 27.3245L14.2227 28.8297H17.7617L19.9624 27.3245L21.1502 26.3405L17.9912 27.9844Z" fill="#C0AC9D" stroke="#C0AC9D" stroke-width="0.25" stroke-linecap="round" stroke-linejoin="round"/>
  <path d="M17.7158 24.5752L17.1802 24.1823H14.8195L14.2839 24.5752L13.9933 27.0313L14.2533 26.7969H17.7464L18.0218 27.0313L17.7158 24.5752Z" fill="#161616" stroke="#161616" stroke-width="0.25" stroke-linecap="round" stroke-linejoin="round"/>
  <path d="M28.0047 11.5602L28.9578 7.30729L27.5822 4.30078L17.7158 10.8918L21.4873 14.5098L26.9218 16.1834L28.0658 14.8384L27.5433 14.4608L28.3237 13.7057L27.6931 13.2139L28.4735 12.5823L28.0047 11.5602Z" fill="#763E1A" stroke="#763E1A" stroke-width="0.25" stroke-linecap="round" stroke-linejoin="round"/>
  <path d="M3.04297 7.30729L3.99609 11.5602L3.51172 12.5823L4.30734 13.2139L3.67672 13.7057L4.45703 14.4608L3.93453 14.8384L5.07859 16.1834L10.5131 14.5098L14.2846 10.8918L4.41797 4.30078L3.04297 7.30729Z" fill="#763E1A" stroke="#763E1A" stroke-width="0.25" stroke-linecap="round" stroke-linejoin="round"/>
  <path d="M26.9219 16.1834L21.4873 14.5098L23.1641 17.1629L20.6891 22.1191L23.9454 22.0781H28.7538L26.9219 16.1834Z" fill="#F5841F" stroke="#F5841F" stroke-width="0.25" stroke-linecap="round" stroke-linejoin="round"/>
  <path d="M10.5127 14.5098L5.07812 16.1834L3.25391 22.0781H8.05391L11.3102 22.1191L8.83516 17.1629L10.5127 14.5098Z" fill="#F5841F" stroke="#F5841F" stroke-width="0.25" stroke-linecap="round" stroke-linejoin="round"/>
  <path d="M17.3333 17.4688L17.7158 10.8918L19.2873 6.7825H12.7127L14.2842 10.8918L14.6667 17.4688L14.8042 19.2208L14.8195 24.1824H17.1802L17.1958 19.2208L17.3333 17.4688Z" fill="#F5841F" stroke="#F5841F" stroke-width="0.25" stroke-linecap="round" stroke-linejoin="round"/>
</svg>
